<svg xmlns="http://www.w3.org/2000/svg" width="256" height="256" viewBox="0 0 256 256">
<g>
<path d="M 0.00 0.00 L 256.00 0.00 L 256.00 256.00 L 0.00 256.00 ZM 141.35 174.02 C144.04,175.11 149.02,174.26 151.00,172.37 C151.82,171.58 155.65,158.46 159.50,143.22 C164.72,122.57 166.88,115.50 167.98,115.50 C169.56,115.50 170.79,119.62 179.53,154.20 C183.99,171.82 184.42,172.95 186.97,173.84 C190.38,175.03 194.45,174.29 196.30,172.14 C197.72,170.48 218.00,91.12 218.00,87.19 C218.00,86.02 217.13,84.60 216.07,84.04 C213.40,82.61 207.46,82.74 206.21,84.25 C205.64,84.94 203.99,90.45 202.54,96.50 C201.09,102.55 198.07,115.15 195.83,124.50 C193.59,133.85 191.25,142.13 190.64,142.89 C189.78,143.96 187.84,137.50 182.26,114.89 C177.29,94.78 174.47,85.11 173.31,84.25 C171.11,82.62 163.55,82.64 162.19,84.27 C161.61,84.97 158.05,98.55 154.27,114.45 C150.49,130.36 146.94,143.52 146.37,143.71 C145.81,143.90 144.88,142.13 144.30,139.78 C136.41,107.71 130.51,85.26 129.73,84.25 C128.55,82.74 122.61,82.61 119.93,84.04 C118.82,84.63 118.00,86.12 118.00,87.55 C118.00,89.86 135.75,162.37 138.14,169.82 C138.72,171.65 140.17,173.53 141.35,174.02 ZM 52.00 174.33 C54.45,175.24 58.38,174.06 60.25,171.85 C61.85,169.96 62.00,166.54 62.00,132.39 L 62.00 95.00 L 75.88 95.00 C76.31,95.00 76.72,95.00 77.12,95.00 C85.12,94.99 89.09,94.99 91.06,96.98 C93.01,98.94 93.01,102.83 93.00,110.58 C93.00,110.97 93.00,111.38 93.00,111.79 C93.00,123.24 92.91,123.74 90.42,126.08 C88.19,128.18 86.62,128.57 78.67,129.00 L 69.50 129.50 L 69.19 133.32 C68.68,139.40 69.81,140.00 81.66,140.00 C93.14,140.00 97.15,138.70 102.16,133.34 C106.29,128.92 107.25,123.96 106.85,108.94 C106.42,92.59 105.30,89.94 97.05,85.75 C91.69,83.02 91.46,83.00 71.82,83.00 C53.33,83.00 51.87,83.13 50.00,85.00 C48.06,86.94 48.00,88.33 48.00,128.81 C48.00,171.95 48.08,172.87 52.00,174.33 Z" fill="rgb(16,16,16)"/>
<path d="M 52.00 174.33 C48.08,172.87 48.00,171.95 48.00,128.81 C48.00,88.33 48.06,86.94 50.00,85.00 C51.87,83.13 53.33,83.00 71.82,83.00 C91.46,83.00 91.69,83.02 97.05,85.75 C105.30,89.94 106.42,92.59 106.85,108.94 C107.25,123.96 106.29,128.92 102.16,133.34 C97.15,138.70 93.14,140.00 81.66,140.00 C69.81,140.00 68.68,139.40 69.19,133.32 L 69.50 129.50 L 78.67 129.00 C86.62,128.57 88.19,128.18 90.42,126.08 C92.91,123.74 93.00,123.24 93.00,111.79 C93.00,94.58 93.43,95.00 75.88,95.00 L 62.00 95.00 L 62.00 132.39 C62.00,166.54 61.85,169.96 60.25,171.85 C58.38,174.06 54.45,175.24 52.00,174.33 ZM 141.35 174.02 C140.17,173.53 138.72,171.65 138.14,169.82 C135.75,162.37 118.00,89.86 118.00,87.55 C118.00,86.12 118.82,84.63 119.93,84.04 C122.61,82.61 128.55,82.74 129.73,84.25 C130.51,85.26 136.41,107.71 144.30,139.78 C144.88,142.13 145.81,143.90 146.37,143.71 C146.94,143.52 150.49,130.36 154.27,114.45 C158.05,98.55 161.61,84.97 162.19,84.27 C163.55,82.64 171.11,82.62 173.31,84.25 C174.47,85.11 177.29,94.78 182.26,114.89 C187.84,137.50 189.78,143.96 190.64,142.89 C191.25,142.13 193.59,133.85 195.83,124.50 C198.07,115.15 201.09,102.55 202.54,96.50 C203.99,90.45 205.64,84.94 206.21,84.25 C207.46,82.74 213.40,82.61 216.07,84.04 C217.13,84.60 218.00,86.02 218.00,87.19 C218.00,91.12 197.72,170.48 196.30,172.14 C194.45,174.29 190.38,175.03 186.97,173.84 C184.42,172.95 183.99,171.82 179.53,154.20 C170.79,119.62 169.56,115.50 167.98,115.50 C166.88,115.50 164.72,122.57 159.50,143.22 C155.65,158.46 151.82,171.58 151.00,172.37 C149.02,174.26 144.04,175.11 141.35,174.02 Z" fill="rgb(253,253,253)"/>
</g>
</svg>